<svg width="17" height="27" viewBox="0 0 17 27" fill="none" xmlns="http://www.w3.org/2000/svg">
<path d="M14.4553 8.13109C14.4553 4.63834 11.6238 1.80691 8.13109 1.80691C4.63834 1.80691 1.80691 4.63834 1.80691 8.13109C1.80691 10.0039 2.61987 11.6855 3.91497 12.8448L3.93732 12.8648L3.95732 12.8848C4.29037 13.224 4.78025 13.7887 5.19369 14.4082C5.40078 14.7186 5.60071 15.0602 5.75129 15.4081C5.89776 15.7466 6.02303 16.1488 6.02303 16.5633H4.21612C4.21612 16.496 4.19081 16.3527 4.0926 16.1257C3.99854 15.9084 3.85944 15.664 3.69028 15.4105C3.351 14.9021 2.93719 14.426 2.66801 14.1518H2.66684C1.03013 12.6655 0 10.5182 0 8.13109C0 3.64041 3.64041 0 8.13109 0C12.6218 0 16.2622 3.64041 16.2622 8.13109C16.2622 10.5185 15.2312 12.6655 13.5942 14.1518L13.3683 14.3917C13.1225 14.6653 12.8265 15.0291 12.5719 15.4105C12.4027 15.664 12.2636 15.9084 12.1696 16.1257C12.0714 16.3527 12.0461 16.496 12.0461 16.5633H10.2391C10.2391 16.1488 10.3644 15.7466 10.5109 15.4081C10.6615 15.0602 10.8614 14.7186 11.0685 14.4082C11.4819 13.7887 11.9718 13.224 12.3049 12.8848L12.3249 12.8648L12.3472 12.8448C13.6423 11.6855 14.4553 10.0039 14.4553 8.13109Z" fill="#B8ACDC"/>
<path d="M12.9495 19.575V21.9842H3.31268V19.575H12.9495Z" fill="#B8ACDC"/>
<path d="M11.1426 24.3934V26.8026H5.11959V24.3934H11.1426Z" fill="#B8ACDC"/>
</svg>
