<svg width="21" height="33" viewBox="0 0 21 33" fill="none" xmlns="http://www.w3.org/2000/svg">
<path d="M18.9532 15.7901C18.9532 14.7083 18.5598 13.6707 17.8595 12.9058C17.1592 12.1408 16.2093 11.711 15.219 11.711C14.2286 11.711 13.2787 12.1408 12.5784 12.9058C11.8781 13.6707 11.4847 14.7083 11.4847 15.7901C11.4847 16.872 11.8781 17.9095 12.5784 18.6745C13.2787 19.4394 14.2286 19.8692 15.219 19.8692C16.2093 19.8692 17.1592 19.4394 17.8595 18.6745C18.5598 17.9095 18.9532 16.872 18.9532 15.7901ZM20.6397 15.7901C20.6397 17.3605 20.0686 18.8666 19.052 19.9771C18.0354 21.0875 16.6566 21.7114 15.219 21.7114C13.7813 21.7114 12.4025 21.0875 11.3859 19.9771C10.3693 18.8666 9.79823 17.3605 9.79823 15.7901C9.79823 14.2197 10.3693 12.7136 11.3859 11.6031C12.4025 10.4927 13.7813 9.86887 15.219 9.86887C16.6566 9.86887 18.0354 10.4927 19.052 11.6031C20.0686 12.7136 20.6397 14.2197 20.6397 15.7901Z" fill="#B8ACDC"/>
<path d="M9.31638 22.2377H5.58211C4.59171 22.2377 3.64189 22.6675 2.94157 23.4324C2.24126 24.1974 1.84783 25.235 1.84783 26.3168C1.84783 27.3986 2.24126 28.4362 2.94157 29.2011C3.64189 29.9661 4.59171 30.3959 5.58211 30.3959C6.5725 30.3959 7.52233 29.9661 8.22264 29.2011C8.92295 28.4362 9.31638 27.3986 9.31638 26.3168V22.2377ZM11.0028 26.3168C11.0028 27.8872 10.4317 29.3933 9.41515 30.5038C8.39857 31.6142 7.01977 32.238 5.58211 32.238C4.14444 32.238 2.76564 31.6142 1.74906 30.5038C0.732476 29.3933 0.161379 27.8872 0.161379 26.3168C0.161379 24.7464 0.732476 23.2403 1.74906 22.1298C2.76564 21.0194 4.14444 20.3955 5.58211 20.3955H11.0028V26.3168Z" fill="#B8ACDC"/>
<path d="M18.9532 5.92136C18.9532 4.83952 18.5598 3.80199 17.8595 3.03701C17.1592 2.27203 16.2093 1.84227 15.219 1.84227H11.4847V10.0004H15.219C16.2093 10.0004 17.1592 9.57069 17.8595 8.80571C18.5598 8.04073 18.9532 7.0032 18.9532 5.92136ZM20.6397 5.92136C20.6397 7.49177 20.0686 8.99788 19.052 10.1083C18.0354 11.2188 16.6566 11.8426 15.219 11.8426H9.79823V0.000106812H15.219C16.6566 0.000106812 18.0354 0.623936 19.052 1.73439C20.0686 2.84484 20.6397 4.35095 20.6397 5.92136Z" fill="#B8ACDC"/>
<path d="M10.8415 0V11.8425H5.42073C3.98306 11.8425 2.60426 11.2187 1.58768 10.1082C0.571097 8.99778 0 7.49167 0 5.92125C0 4.35084 0.571097 2.84473 1.58768 1.73428C2.60426 0.623829 3.98306 0 5.42073 0H10.8415ZM1.68645 5.92125C1.68645 7.00309 2.07988 8.04062 2.78019 8.8056C3.48051 9.57058 4.43033 10.0003 5.42073 10.0003H9.155V1.84217H5.42073C4.43033 1.84217 3.48051 2.27193 2.78019 3.0369C2.07988 3.80188 1.68645 4.83941 1.68645 5.92125Z" fill="#B8ACDC"/>
<path d="M11.0028 9.86887V21.7114H5.58211C4.14444 21.7114 2.76564 21.0875 1.74906 19.9771C0.732476 18.8666 0.161379 17.3605 0.161379 15.7901C0.161379 14.2197 0.732476 12.7136 1.74906 11.6031C2.76564 10.4927 4.14444 9.86887 5.58211 9.86887H11.0028ZM1.84783 15.7901C1.84783 16.872 2.24126 17.9095 2.94157 18.6745C3.64188 19.4394 4.59171 19.8692 5.58211 19.8692H9.31638V11.711H5.58211C4.59171 11.711 3.64188 12.1408 2.94157 12.9058C2.24126 13.6707 1.84783 14.7083 1.84783 15.7901Z" fill="#B8ACDC"/>
</svg>
