<svg width="25" height="25" viewBox="0 0 25 25" fill="none" xmlns="http://www.w3.org/2000/svg">
<path fill-rule="evenodd" clip-rule="evenodd" d="M24.5744 4.0879C24.5741 1.83067 22.7438 0.000281762 20.4865 0H4.0879C1.83067 0.000281762 0.000281762 1.83067 0 4.0879V20.4865C0.000281762 22.7438 1.83067 24.5741 4.0879 24.5744H20.4865C22.7438 24.5741 24.5741 22.7438 24.5744 20.4865V4.0879ZM3.88909 24.3286C3.76228 24.3221 3.6371 24.3094 3.51383 24.2909L3.50206 24.2886C3.62916 24.308 3.75822 24.3219 3.88909 24.3286ZM4.0879 22.3617C3.05251 22.3614 2.21299 21.5219 2.21276 20.4865V8.17579H22.3617V20.4865C22.3614 21.5219 21.5219 22.3614 20.4865 22.3617H4.0879ZM22.5442 20.9723C22.5507 20.9485 22.5568 20.925 22.5617 20.9006L22.5593 20.9136C22.5552 20.9334 22.5497 20.9529 22.5442 20.9723ZM2.21276 4.0879C2.21298 3.0895 2.99324 2.27469 3.97732 2.21746L6.96295 5.96303H2.21276V4.0879ZM15.5352 5.96303H11.2838L8.29461 2.21276H12.546L15.5352 5.96303ZM22.3617 5.96303H19.856L16.8657 2.21276H20.4865C21.5219 2.21299 22.3614 3.05251 22.3617 4.0879V5.96303ZM3.85483 1.67705C3.85723 1.67681 3.85963 1.67657 3.86203 1.67633H3.85968L3.85483 1.67705Z" fill="#B8ACDC"/>
<path fill-rule="evenodd" clip-rule="evenodd" d="M9.63684 12.5554C9.63684 11.8887 10.428 11.47 11.0637 11.8006L15.1794 13.9433C15.82 14.2767 15.82 15.1172 15.1794 15.4506L11.0637 17.5925C10.428 17.9232 9.63684 17.5052 9.63684 16.8385V12.5554ZM9.81477 12.5554C9.81477 12.5244 9.81676 12.4941 9.82084 12.4645L9.82258 12.4558L9.81477 12.5554Z" fill="#B8ACDC"/>
</svg>
