<svg width="28" height="28" viewBox="0 0 28 28" fill="none" xmlns="http://www.w3.org/2000/svg">
<path d="M8.13109 13.853C8.13109 8.7795 9.65659 4.73371 11.1897 2.10453C5.81859 3.31695 1.80691 8.11548 1.80691 13.853C1.80691 19.5904 5.81872 24.3877 11.1897 25.6002C9.65676 22.971 8.13109 18.9259 8.13109 13.853ZM9.938 13.853C9.938 19.5048 11.9779 23.7241 13.5212 25.8908C13.6315 25.8938 13.742 25.899 13.853 25.899C13.9635 25.899 14.0737 25.8938 14.1835 25.8908C15.7269 23.7243 17.7679 19.5053 17.7679 13.853C17.7679 8.19993 15.727 3.98022 14.1835 1.81397C14.0737 1.81101 13.9635 1.80691 13.853 1.80691C13.742 1.80691 13.6315 1.81099 13.5212 1.81397C11.9778 3.98039 9.938 8.20042 9.938 13.853ZM19.5748 13.853C19.5748 18.9262 18.0481 22.971 16.5151 25.6002C21.8866 24.3881 25.899 19.5908 25.899 13.853C25.899 8.11508 21.8867 3.31653 16.5151 2.10453C18.0483 4.7337 19.5748 8.77917 19.5748 13.853ZM27.7059 13.853C27.7059 21.5037 21.5037 27.7059 13.853 27.7059C6.20219 27.7059 0 21.5037 0 13.853C0 6.20219 6.20219 0 13.853 0C21.5037 0 27.7059 6.20219 27.7059 13.853Z" fill="#B8ACDC"/>
<path d="M27.1037 12.6481V15.0573H2.49222e-05V12.6481H27.1037Z" fill="#B8ACDC"/>
</svg>
