<svg width="25" height="25" viewBox="0 0 25 25" fill="none" xmlns="http://www.w3.org/2000/svg">
<path d="M22.8875 9.63685H9.63685V22.8875H20.1771C21.674 22.8875 22.8875 21.674 22.8875 20.1771V9.63685ZM1.80691 20.1771C1.80691 21.674 3.02038 22.8875 4.51727 22.8875H7.82994V9.63685H1.80691V20.1771ZM22.8875 4.51727C22.8875 3.02038 21.674 1.80691 20.1771 1.80691H4.51727C3.02038 1.80691 1.80691 3.02038 1.80691 4.51727V7.82994H22.8875V4.51727ZM24.6944 20.1771C24.6944 22.672 22.672 24.6944 20.1771 24.6944H4.51727C2.02245 24.6944 0 22.672 0 20.1771V4.51727C0 2.02245 2.02245 0 4.51727 0H20.1771C22.672 0 24.6944 2.02245 24.6944 4.51727V20.1771Z" fill="#B8ACDC"/>
</svg>
