<svg width="86" height="89" viewBox="0 0 86 89" fill="none" xmlns="http://www.w3.org/2000/svg">
<path d="M21.9687 34.3921H23.8658V60.2328H25.739C25.739 59.9573 25.739 59.6458 25.739 59.3344C25.7525 50.9629 25.7599 42.5929 25.7808 34.2214C25.7853 32.7256 25.5971 32.9397 27.0984 32.9202C27.2702 32.9187 27.4434 32.9412 27.7243 32.9591V60.1908C27.8542 60.2732 27.8752 60.2972 27.8946 60.2957C30.0292 60.2268 29.6587 60.6056 29.6632 58.6127C29.6826 49.9672 29.6737 41.3231 29.6752 32.6776C29.6752 32.3377 29.6752 31.9979 29.6752 31.616H31.4767V60.2777C32.0727 60.2777 32.5881 60.3076 33.0945 60.2582C33.2424 60.2433 33.438 60.0246 33.4873 59.8629C33.556 59.6338 33.5097 59.3703 33.5097 59.1203C33.5172 47.3858 33.5336 35.6528 33.5112 23.9183C33.5097 23.1158 33.7741 22.683 34.4717 22.3791C36.1239 21.6559 37.8388 21.1573 39.6388 21.1094C41.9676 21.0465 44.3009 21.0225 46.6268 21.1198C48.3357 21.1917 50.0057 21.581 51.5772 22.3387C52.354 22.713 52.6587 23.2625 52.6572 24.1055C52.6438 33.7467 52.6468 43.388 52.6468 53.0292C52.6468 55.1718 52.6468 57.3145 52.6468 59.4572C52.6468 59.7252 52.6468 59.9932 52.6468 60.3061H54.641V31.6265H56.4963V60.1714C56.6397 60.2462 56.68 60.2867 56.7233 60.2882C57.8526 60.3161 58.4183 59.7581 58.4203 58.6142C58.4203 50.3924 58.4173 42.1721 58.4203 33.9504C58.4203 33.6329 58.4472 33.3155 58.4606 33.0145C60.3353 32.6761 60.3936 32.7211 60.3936 34.4654C60.3936 42.6872 60.3936 50.9075 60.3936 59.1292C60.3936 60.5247 60.3278 60.2477 61.5498 60.2912C61.747 60.2987 61.9441 60.2912 62.2444 60.2912V34.3906C62.9046 34.3531 63.4663 34.3202 64.1355 34.2813V60.2612H66.0969V35.7112H68.0015V60.2837H69.9763V37.1067C70.5364 37.1067 71.0234 37.0812 71.5029 37.1247C71.6314 37.1366 71.8002 37.3433 71.8435 37.4915C71.9033 37.6981 71.8644 37.9362 71.8644 38.1593C71.8659 45.1593 71.8659 52.1607 71.8689 59.1607C71.8689 60.4993 71.8121 60.2507 72.9863 60.2882C73.2059 60.2957 73.4254 60.2882 73.7601 60.2882V38.5606C74.4308 38.5262 74.9909 38.4977 75.6363 38.4648C75.6617 38.8421 75.702 39.1535 75.702 39.4635C75.696 45.2431 75.687 51.0213 75.6661 56.8009C75.6661 57.0614 75.5914 57.3519 75.4615 57.578C74.3053 59.6009 73.1371 61.6193 71.9421 63.6197C71.8316 63.8039 71.5253 63.8862 71.2923 63.9731C71.1609 64.0225 70.998 63.982 70.8486 63.982C52.3331 63.982 33.8175 63.9776 15.3019 64C14.5893 64 14.1546 63.7994 13.8096 63.1915C12.9641 61.7031 12.0738 60.2388 11.2074 58.7609C10.6696 57.8445 10.45 56.8758 10.4575 55.7872C10.4934 50.3071 10.462 44.8254 10.4545 39.3452C10.4545 39.0981 10.4545 38.8526 10.4545 38.5666H12.3725V60.1849C12.4786 60.2582 12.5159 60.3046 12.5593 60.3106C13.7443 60.4484 14.3374 59.9328 14.3384 58.7639C14.3399 51.8882 14.3414 45.0125 14.3429 38.1354C14.3429 37.8179 14.3429 37.502 14.3429 37.1322H16.113V60.2732H18.155C18.155 59.9633 18.155 59.6713 18.155 59.3793C18.1595 51.9556 18.1655 44.5304 18.1685 37.1067C18.1685 35.4746 18.2611 35.4013 19.976 35.7591V60.2283H21.9687V34.3906V34.3921ZM44.9925 58.4045C45.0359 58.2234 45.0687 58.153 45.0687 58.0811C45.0747 53.8227 45.0732 49.5629 45.0852 45.3045C45.0852 44.8763 44.9059 44.731 44.5056 44.7385C43.8349 44.752 43.1641 44.7355 42.4934 44.743C41.2058 44.758 41.1744 44.761 41.161 46.0157C41.1176 49.9252 41.0952 53.8347 41.0908 57.7442C41.0908 57.9643 41.3238 58.3701 41.4612 58.3761C42.6443 58.427 43.8289 58.4045 44.9925 58.4045ZM46.8792 58.4C48.1146 58.4 49.3231 58.415 50.5315 58.3761C50.654 58.3716 50.8661 58.0392 50.8661 57.858C50.8871 53.9276 50.8886 49.9971 50.8721 46.0666C50.8721 45.8765 50.6884 45.5516 50.5405 45.5186C49.3574 45.2626 48.1639 45.0619 46.8792 44.8269V58.4ZM39.2653 44.8403C38.1554 45.038 37.1187 45.2536 36.0716 45.3944C35.489 45.4737 35.3053 45.7043 35.3113 46.3017C35.3441 49.6078 35.3307 52.9154 35.3337 56.2215C35.3337 56.9297 35.3337 57.6379 35.3337 58.3626H39.2653V44.8388V44.8403ZM41.0654 29.5572C41.0654 31.4319 41.0564 33.2421 41.0848 35.0524C41.0863 35.1841 41.3552 35.4177 41.506 35.4222C42.5487 35.4552 43.5929 35.4582 44.6355 35.4207C44.7879 35.4147 45.0568 35.1437 45.0598 34.9925C45.0896 33.2047 45.0792 31.4154 45.0792 29.5572H41.0654ZM46.8463 29.5078C46.8463 31.4498 46.8389 33.2586 46.8598 35.0659C46.8613 35.2081 47.0435 35.4462 47.175 35.4731C48.3551 35.7127 49.5426 35.9148 50.6959 36.1215C50.7691 36.0032 50.8169 35.9613 50.8169 35.9193C50.8408 34.157 50.8706 32.3946 50.8632 30.6308C50.8632 30.4766 50.6451 30.2161 50.4897 30.1846C49.329 29.942 48.1594 29.7444 46.8449 29.5063L46.8463 29.5078ZM50.8751 43.7847C50.8751 41.8487 50.8856 40.0414 50.8572 38.2357C50.8542 38.086 50.6182 37.8404 50.4568 37.8089C49.2947 37.5799 48.1235 37.3942 46.8478 37.1756C46.8478 39.0966 46.8404 40.9309 46.8628 42.7636C46.8643 42.8953 47.0704 43.1124 47.2108 43.1409C48.3745 43.367 49.5441 43.5571 50.8736 43.7862L50.8751 43.7847ZM45.0822 40.1582C45.0822 39.4111 45.0598 38.6639 45.0896 37.9183C45.1091 37.4256 44.9851 37.1846 44.4339 37.2055C43.5167 37.2415 42.5965 37.228 41.6778 37.21C41.2401 37.201 41.0474 37.3568 41.0519 37.8134C41.0669 39.3811 41.0639 40.9503 41.0534 42.518C41.0504 42.9163 41.1789 43.1154 41.6091 43.1094C42.5771 43.093 43.5466 43.093 44.5145 43.1094C44.9238 43.1169 45.0971 42.9732 45.0852 42.5465C45.0643 41.7499 45.0792 40.9533 45.0807 40.1567L45.0822 40.1582ZM39.3072 29.4988C38.5707 29.7594 37.9672 29.9735 37.3637 30.1876C36.0074 30.6677 35.3302 31.6335 35.3322 33.0849C35.3322 34.1914 35.3322 35.2994 35.3322 36.4913C36.6258 36.1484 37.776 35.8594 38.9143 35.5285C39.0756 35.4821 39.2877 35.2336 39.2907 35.0763C39.3176 33.2676 39.3072 31.4573 39.3072 29.4988ZM39.3161 37.1426C38.0942 37.4646 37.0217 37.767 35.9387 38.0216C35.4591 38.1354 35.3157 38.3794 35.3247 38.8571C35.3486 40.2765 35.3262 41.696 35.3292 43.1154C35.3292 43.3236 35.3725 43.5317 35.3994 43.7817C36.6333 43.5631 37.7835 43.3745 38.9247 43.1409C39.0786 43.1094 39.2967 42.8579 39.2997 42.7052C39.3251 40.8934 39.3161 39.0802 39.3161 37.1426Z" fill="#CA9759"/>
<path d="M77.9574 36.9108C76.9685 36.5544 75.9901 36.2025 75.0117 35.8477C68.5645 33.5089 62.1172 31.17 55.67 28.8312C54.9241 28.5607 54.598 27.8285 54.6916 26.6347C54.9067 26.6946 55.1143 26.7365 55.31 26.8084C62.6251 29.4811 69.9387 32.1583 77.2524 34.834C77.823 35.0421 78.1158 35.8761 77.9574 36.9093V36.9108Z" fill="#CA9759"/>
<path d="M8.0001 36.9406C8.13903 36.2877 8.23911 35.7352 8.3855 35.1962C8.41986 35.0704 8.59463 34.9402 8.73356 34.8892C16.2309 32.1522 23.7298 29.424 31.2316 26.6974C31.2958 26.6735 31.3735 26.6869 31.4452 26.6839C31.5787 27.8299 31.1265 28.59 30.0889 28.9644C23.0217 31.5263 15.9546 34.0912 8.88742 36.6531C8.63795 36.7429 8.38401 36.8178 8.0016 36.9421L8.0001 36.9406Z" fill="#CA9759"/>
<path d="M48.7923 15.3509C48.7923 16.5847 48.8058 17.6762 48.7864 18.7678C48.7774 19.2859 47.7258 19.7395 47.0521 19.494C45.7794 19.0313 44.5037 18.657 43.0636 19.0313C43.0636 17.8619 43.0383 16.7764 43.0771 15.6938C43.0905 15.303 44.2408 14.8852 44.7979 15.029C45.1087 15.1098 45.4223 15.1922 45.7181 15.312C46.71 15.7133 47.6959 16.1295 48.7923 15.3494V15.3509Z" fill="#CA9759"/>
<path d="M42.7645 81.5067C34.3094 81.5067 26.5256 78.7485 20.3365 74.1185C18.7801 75.8176 15.5448 79.3053 15.0549 79.6633C22.6439 85.5053 32.279 89 42.7645 89C53.2853 89 62.9499 85.4818 70.5507 79.6043C69.8771 79.199 66.851 75.6628 65.4221 73.9453C59.1965 78.6796 51.3245 81.5067 42.7645 81.5067Z" fill="#799DB9"/>
<path d="M15.0549 79.6633C15.5448 79.3053 18.7801 75.8176 20.3365 74.1185C19.2039 73.3124 17.1799 71.8468 16.3094 71.2148L13.8003 72.4693C12.7671 73.5025 10.7303 75.6574 10.8484 76.0116C10.9665 76.3658 13.7019 78.5937 15.0549 79.6633Z" fill="#799DB9"/>
<path d="M65.4221 73.9453C66.851 75.6628 69.8771 79.199 70.5507 79.6043C71.9774 78.5051 74.8605 76.1445 74.9785 75.495C74.4472 74.9047 71.1165 71.756 69.5175 70.2554C68.5338 71.1656 66.3375 73.1778 65.4221 73.9453Z" fill="#799DB9"/>
<path d="M15.4238 76.5281C15.8961 75.7015 14.3414 73.7729 13.505 72.912C12.6195 73.0891 11.3157 75.1505 10.7745 76.1591C12.1275 76.6264 14.9515 77.3546 15.4238 76.5281Z" fill="#797B85"/>
<path d="M74.9785 75.6425C74.8604 75.4063 72.5677 73.1826 71.4362 72.1002C70.3784 72.912 68.6614 74.8897 70.2554 76.3067C72.248 78.0778 75.1261 75.9377 74.9785 75.6425Z" fill="#797B85"/>
<path fill-rule="evenodd" clip-rule="evenodd" d="M42.7288 7.52736C62.1701 7.52736 77.9303 23.2876 77.9303 42.7288C77.9303 53.9174 72.7104 63.8869 64.5729 70.3346C65.9505 72.0599 68.868 75.6122 69.5174 76.0193C70.6245 75.1273 71.6862 74.1812 72.6984 73.185C72.7699 73.1147 72.8411 73.0441 72.9121 72.9733C80.6625 65.2385 85.4577 54.5436 85.4577 42.7288C85.4577 19.1304 66.3273 0 42.7288 0C19.1303 0 0 19.1304 0 42.7288C0 55.2819 5.41317 66.5706 14.0326 74.388C14.1424 74.4877 14.2528 74.5868 14.3637 74.6853C14.9019 75.1633 15.4522 75.6279 16.0141 76.0786C16.4864 75.719 19.6056 72.2154 21.1061 70.5086C12.8421 64.067 7.52736 54.0186 7.52736 42.7288C7.52736 23.2876 23.2876 7.52736 42.7288 7.52736Z" fill="#789DBA"/>
<path d="M15.3499 76.602C15.5861 76.4248 15.8911 76.1793 16.0141 76.0786C15.4522 75.6279 14.9019 75.1633 14.3637 74.6853C14.831 75.149 15.3968 75.8988 15.3499 76.602Z" fill="#789DBA"/>
<path d="M69.5174 76.0193C69.5666 76.1151 69.783 76.3215 70.2553 76.3806C70.4718 75.569 71.8618 74.0271 72.6984 73.185C71.6862 74.1812 70.6245 75.1273 69.5174 76.0193Z" fill="#789DBA"/>
<path d="M53.2456 68.5008H55.9472V74.0834H56.4478V76.0293H55.6732V74.8013H53.17V76.0293H52.3954V74.0834C52.6788 73.9417 52.8489 73.7433 52.9433 73.5922C53.1606 73.2521 53.2456 72.7326 53.2456 71.8541V68.5008ZM54.0391 69.2187V71.5707C54.0391 72.7043 53.9541 73.0916 53.8879 73.3088C53.7651 73.6961 53.5573 73.9323 53.3873 74.0834H55.097V69.2187H54.0391Z" fill="#CA9759"/>
<path d="M52.4842 69.247H51.5207V74.8013H50.6894V69.247H49.7259V68.5008H52.4842V69.247Z" fill="#CA9759"/>
<path d="M49.1658 74.8013H48.3156V69.2187H47.1632V74.8013H46.313V68.5008H49.1658V74.8013Z" fill="#CA9759"/>
<path d="M42.4178 68.5008H43.3057L43.693 69.9838C43.8347 70.5411 43.9386 70.9001 44.0708 71.6369C44.1275 71.3251 44.2409 70.6923 44.4298 69.9649L44.8076 68.5008H45.6578L43.9291 74.8013H43.0979L43.6741 72.7893L42.4178 68.5008Z" fill="#CA9759"/>
<path d="M42.0815 69.2187H40.6645V74.8013H39.8144V68.5008H42.0815V69.2187Z" fill="#CA9759"/>
<path d="M38.1279 72.9877V72.4681C38.1279 71.7408 37.9957 71.4763 37.8918 71.3724C37.8068 71.2874 37.7123 71.259 37.6273 71.259C37.5423 71.259 37.4478 71.2874 37.3628 71.3724C37.2589 71.4763 37.1266 71.7314 37.1266 72.4681V72.9877C37.1266 73.2144 37.1455 73.8095 37.3628 74.0268C37.4478 74.1118 37.5423 74.1401 37.6273 74.1401C37.7123 74.1401 37.8068 74.1118 37.8918 74.0268C38.109 73.8095 38.1279 73.2144 38.1279 72.9877ZM37.9768 69.4643L37.7501 69.5776C37.4006 69.7477 37.2305 70.0027 37.1455 70.1822C37.0322 70.4278 36.985 70.8434 36.9944 71.1174C37.0416 70.9662 37.1361 70.8151 37.24 70.7206C37.4006 70.5695 37.5895 70.5128 37.7973 70.5128C38.0618 70.5128 38.2885 70.5978 38.4869 70.8056C38.8742 71.2213 38.9403 71.9297 38.9403 72.676C38.9403 73.375 38.8742 74.1023 38.4113 74.5557C38.1657 74.7919 37.9201 74.8675 37.6084 74.8675C37.2967 74.8675 37.0322 74.7919 36.796 74.5652C36.3048 74.0834 36.2859 73.1388 36.2859 72.3359C36.2859 71.8447 36.3143 71.1362 36.371 70.6073C36.4182 70.1822 36.5221 69.6154 36.9283 69.2187C37.1077 69.0392 37.3439 68.9164 37.5895 68.8031C37.8918 68.6708 38.0901 68.6047 38.2035 68.4819C38.298 68.378 38.3168 68.2646 38.3168 68.1891H39.0064C38.9781 68.6519 38.8269 68.8881 38.6475 69.0581C38.4302 69.2659 38.194 69.3509 37.9768 69.4643Z" fill="#CA9759"/>
<path d="M35.3291 74.8013H34.479V69.2187H33.3266V74.8013H32.4764V68.5008H35.3291V74.8013Z" fill="#CA9759"/>
<path d="M31.6742 73.9322V74.7068C31.4192 74.858 31.2775 74.8863 30.9847 74.8863C29.3032 74.8863 29.0765 73.0537 29.0765 71.7596C29.0765 70.4655 29.2371 68.4157 30.9658 68.4157C31.2586 68.4157 31.4192 68.4629 31.6742 68.6046V69.3698C31.5042 69.2753 31.3247 69.2092 31.1263 69.2092C29.9834 69.2092 29.9739 70.9095 29.9739 71.7124C29.9739 72.5342 30.04 74.055 31.1736 74.055C31.3625 74.055 31.5042 74.0173 31.6742 73.9322Z" fill="#CA9759"/>
</svg>
