<svg width="61" height="53" viewBox="0 0 61 53" fill="none" xmlns="http://www.w3.org/2000/svg">
<path fill-rule="evenodd" clip-rule="evenodd" d="M12.481 0.650578C11.6665 -0.188376 10.3136 -0.220085 9.45916 0.57963C3.63424 6.03148 5.59882e-06 13.7309 0 22.2603C9.43589e-05 38.8001 13.6554 52.2084 30.5 52.2084C47.3446 52.2084 60.9999 38.8001 61 22.2603C61 13.7309 57.3658 6.03148 51.5408 0.57963C50.6864 -0.220085 49.3335 -0.188375 48.519 0.650578C47.7046 1.48956 47.7368 2.81816 48.5912 3.61793C53.605 8.31053 56.7251 14.926 56.7251 22.2603C56.725 35.7477 46.1643 46.8128 32.7197 47.9191V44.3052C32.7538 44.3024 32.7877 44.3 32.8213 44.297C33.6686 44.2195 34.6471 44.0331 35.6889 43.7496C37.7739 43.182 40.2601 42.1851 42.6612 40.7081C47.4466 37.7645 52.2035 32.6909 52.2035 25.0854C52.2035 24.5219 51.9725 23.9819 51.5628 23.5872C51.1531 23.1925 50.5989 22.9764 50.0251 22.9871C42.4814 23.1289 37.3118 26.3095 33.9909 30.2774C33.5316 30.8261 33.1086 31.3888 32.7197 31.959V24.2268L42.8876 14.2429C43.7223 13.4233 43.7223 12.0944 42.8876 11.2748L32.0936 0.676119C31.2589 -0.143486 29.9055 -0.143486 29.0708 0.676119L18.2768 11.2748C17.4422 12.0944 17.4421 13.4233 18.2768 14.2429L28.4447 24.2268V31.8393C28.0787 31.31 27.6829 30.7877 27.2557 30.2774C23.9348 26.3095 18.7652 23.1289 11.2215 22.9871C10.6477 22.9763 10.0935 23.1926 9.68379 23.5872C9.27408 23.9819 9.04314 24.5219 9.04313 25.0854C9.04314 32.6909 13.8 37.7645 18.5855 40.7081C20.9866 42.1851 23.4727 43.182 25.5578 43.7496C26.5995 44.0331 27.578 44.2195 28.4253 44.297L28.4447 44.2985V47.9323C14.9219 46.9031 4.27502 35.8027 4.27493 22.2603C4.27494 14.926 7.39505 8.31037 12.4088 3.61777C13.2632 2.818 13.2954 1.48956 12.481 0.650578ZM20.8549 37.1508C17.3526 34.9965 14.3014 31.7897 13.5149 27.357C18.3901 27.9926 21.7102 30.2625 23.953 32.9423C25.8293 35.1842 26.9694 37.7418 27.5687 39.9163C27.2975 39.8582 27.007 39.7881 26.6997 39.7044C24.9851 39.2377 22.8828 38.3982 20.8549 37.1508ZM37.2936 32.9423C39.5365 30.2625 42.8564 27.9926 47.7316 27.357C46.945 31.7896 43.894 34.9965 40.3917 37.1508C38.3638 38.3982 36.2615 39.2377 34.5469 39.7044C34.2396 39.7881 33.949 39.8581 33.6778 39.9163C34.2771 37.7418 35.4173 35.1842 37.2936 32.9423ZM30.5822 20.3893L22.8111 12.7588L30.5822 5.12832L38.3533 12.7588L30.5822 20.3893Z" fill="#B8ACDC"/>
</svg>
