<svg width="28" height="24" viewBox="0 0 28 24" fill="none" xmlns="http://www.w3.org/2000/svg">
<path d="M13.853 5.72188C13.853 3.5597 12.1002 1.80691 9.938 1.80691C7.77582 1.80691 6.02303 3.5597 6.02303 5.72188C6.02303 7.88406 7.77582 9.63685 9.938 9.63685C12.1002 9.63685 13.853 7.88406 13.853 5.72188ZM15.6599 5.72188C15.6599 8.88198 13.0981 11.4438 9.938 11.4438C6.77789 11.4438 4.21612 8.88198 4.21612 5.72188C4.21612 2.56177 6.77789 0 9.938 0C13.0981 0 15.6599 2.56177 15.6599 5.72188Z" fill="#B8ACDC"/>
<path d="M21.6829 5.72188C21.6829 3.5597 19.9301 1.80691 17.7679 1.80691V0C20.928 0 23.4898 2.56177 23.4898 5.72188C23.4898 8.88198 20.928 11.4438 17.7679 11.4438V9.63685C19.9301 9.63685 21.6829 7.88406 21.6829 5.72188Z" fill="#B8ACDC"/>
<path d="M18.0691 21.3818C18.0691 18.5543 15.777 16.2622 12.9495 16.2622H6.92648C4.09902 16.2622 1.80691 18.5543 1.80691 21.3818V23.791H0V21.3818C0 17.5564 3.10109 14.4553 6.92648 14.4553H12.9495C16.7749 14.4553 19.876 17.5564 19.876 21.3818V23.791H18.0691V21.3818Z" fill="#B8ACDC"/>
<path d="M25.899 21.3818C25.899 18.5543 23.6069 16.2622 20.7795 16.2622V14.4553C24.6048 14.4553 27.7059 17.5564 27.7059 21.3818V23.791H25.899V21.3818Z" fill="#B8ACDC"/>
</svg>
