<svg width="368" height="404" viewBox="0 0 368 404" fill="none" xmlns="http://www.w3.org/2000/svg">
<path d="M57.4102 93.3146C61.8075 89.2047 68.7703 89.3679 72.9619 93.6794C77.1532 97.9912 76.9869 104.818 72.5898 108.928C41.7167 137.784 22.5 178.469 22.5 223.572C22.5004 307.571 89.2001 376.292 173.5 381.597V355.604C172.842 355.564 172.196 355.516 171.567 355.459C166.558 355.001 160.726 353.895 154.476 352.196C141.968 348.796 127.027 342.815 112.598 333.952C83.8241 316.278 55.5 285.999 55.5 240.731C55.5 237.834 56.6883 235.059 58.7969 233.031C60.9054 231.003 63.7578 229.891 66.7109 229.947C111.963 230.796 142.869 249.819 162.724 273.509C166.771 278.337 170.349 283.348 173.5 288.423V234.704L111.073 173.492C106.778 169.28 106.778 162.451 111.073 158.239L176.722 93.8681C181.017 89.656 187.983 89.656 192.278 93.8681L257.927 158.239C262.222 162.451 262.222 169.28 257.927 173.492L195.5 234.704V289.232C198.77 283.881 202.514 278.594 206.776 273.509C226.631 249.819 257.537 230.796 302.789 229.947C305.742 229.891 308.595 231.003 310.703 233.031C312.812 235.059 314 237.834 314 240.731C314 285.999 285.676 316.278 256.902 333.952C242.473 342.815 227.532 348.796 215.024 352.196C208.774 353.895 202.942 355.001 197.933 355.459C197.146 355.53 196.332 355.589 195.5 355.632V381.529C279.327 375.746 345.5 307.238 345.5 223.572C345.5 178.469 326.283 137.784 295.41 108.928C291.013 104.818 290.847 97.9912 295.038 93.6794C299.23 89.3679 306.192 89.2047 310.59 93.3146C345.637 126.072 367.5 172.328 367.5 223.572C367.5 322.943 285.344 403.5 184 403.5C82.656 403.5 0.500437 322.943 0.5 223.572C0.5 172.328 22.3625 126.072 57.4102 93.3146ZM78.3105 252.266C82.4595 281.278 102.021 302 124.277 315.67C136.786 323.354 149.751 328.526 160.353 331.408C163.498 332.263 166.368 332.897 168.898 333.337C165.454 319.301 158.241 302.135 145.727 287.204C131.393 270.103 109.961 255.701 78.3105 252.266ZM291.189 252.266C259.539 255.701 238.107 270.103 223.773 287.204C211.259 302.135 204.046 319.301 200.602 333.337C203.132 332.897 206.002 332.263 209.147 331.408C219.749 328.526 232.714 323.354 245.223 315.67C267.479 302 287.04 281.278 291.189 252.266ZM134.408 165.865L184.5 214.982L234.592 165.865L184.5 116.749L134.408 165.865ZM175.722 3.65905C180.017 -0.553016 186.983 -0.553016 191.278 3.65905L215.778 27.6821C220.074 31.8942 220.074 38.7238 215.778 42.9359L191.278 66.9589C186.983 71.1709 180.017 71.1709 175.722 66.9589L151.222 42.9359C146.926 38.7238 146.926 31.8942 151.222 27.6821L175.722 3.65905ZM174.557 35.309L183.5 44.0792L192.443 35.309L183.5 26.5397L174.557 35.309Z" stroke="#B8ACDC" stroke-linejoin="round"/>
</svg>
